<?xml version="1.0" encoding="UTF-8"?>
<svg version="1.1" xmlns="http://www.w3.org/2000/svg" width="600" height="600">
<path d="M0 0 C0.92278244 -0.00701431 1.84556488 -0.01402863 2.79631042 -0.02125549 C5.75618429 -0.03865636 8.71585812 -0.04510733 11.67578125 -0.046875 C13.19235321 -0.04788712 13.19235321 -0.04788712 14.73956299 -0.04891968 C29.37297262 -0.03338219 43.59077521 0.37474252 57.98828125 3.203125 C58.88385742 3.36409668 59.77943359 3.52506836 60.70214844 3.69091797 C86.26478899 8.31565012 110.00024933 17.22041422 132.98828125 29.203125 C133.70290527 29.5729248 134.4175293 29.94272461 135.15380859 30.32373047 C149.47639235 37.83127054 162.76480209 47.65090055 174.98828125 58.203125 C175.76816406 58.87214844 176.54804688 59.54117188 177.3515625 60.23046875 C189.80553083 71.17610049 201.1640524 82.84519081 210.98828125 96.203125 C211.41447754 96.77385742 211.84067383 97.34458984 212.27978516 97.93261719 C218.36631802 106.09865788 223.8746644 114.5263737 228.93554688 123.36474609 C229.92620989 125.09473045 230.93327867 126.8152906 231.94140625 128.53515625 C269.72536317 195.7322341 271.80663776 278.41919619 251.91796875 351.37915039 C237.48711702 402.03555001 210.97156906 448.93431244 175.3203125 487.65234375 C173.35329097 489.80387651 171.44274996 491.98604473 169.55078125 494.203125 C162.64186076 502.13860678 155.01296744 509.41080133 146.98828125 516.203125 C146.08078125 516.99976563 145.17328125 517.79640625 144.23828125 518.6171875 C84.5015532 570.71205774 4.65628089 599.85487487 -74.66552734 594.7409668 C-104.99164662 592.44096613 -134.42696454 585.05038718 -162.01171875 572.203125 C-162.70942383 571.87844238 -163.40712891 571.55375977 -164.12597656 571.21923828 C-197.17151795 555.64239815 -227.60791453 532.15228104 -250.01171875 503.203125 C-250.43565918 502.6555957 -250.85959961 502.10806641 -251.29638672 501.54394531 C-297.14843219 441.8709508 -313.57347008 365.94705545 -304.44140625 291.91210938 C-295.65155686 226.79464719 -268.04670843 166.48160536 -226.01171875 116.203125 C-225.38885986 115.44273926 -225.38885986 115.44273926 -224.75341797 114.66699219 C-218.31082491 106.8031328 -211.44713756 99.45800238 -204.26171875 92.265625 C-203.46975098 91.47285156 -202.6777832 90.68007812 -201.86181641 89.86328125 C-197.06826648 85.11484945 -192.15557121 80.56906545 -187.01171875 76.203125 C-186.41713867 75.69644287 -185.82255859 75.18976074 -185.20996094 74.66772461 C-134.46398523 31.82378168 -67.38334315 0.34453557 0 0 Z M-196.01171875 279.203125 C-196.06935753 291.1798269 -196.06935753 291.1798269 -194.82421875 302.890625 C-194.62566284 304.14891113 -194.62566284 304.14891113 -194.4230957 305.43261719 C-189.18645374 336.87011067 -176.16820537 367.17353526 -155.01171875 391.203125 C-154.27050781 392.05390625 -153.52929688 392.9046875 -152.765625 393.78125 C-150.5472718 396.28795067 -148.2932045 398.75382419 -146.01171875 401.203125 C-144.98498047 402.31107422 -144.98498047 402.31107422 -143.9375 403.44140625 C-121.96688859 426.30546212 -92.21321946 441.22044072 -61.76171875 449.015625 C-60.63008301 449.30796021 -60.63008301 449.30796021 -59.47558594 449.60620117 C-47.06252785 452.60633206 -34.56402932 453.57119055 -21.82421875 453.515625 C-21.15362427 453.51380219 -20.48302979 453.51197937 -19.79211426 453.51010132 C-8.30648304 453.45788153 2.75851904 452.65150234 13.98828125 450.203125 C14.76494141 450.03683594 15.54160156 449.87054688 16.34179688 449.69921875 C45.29317249 443.28669093 73.23637399 429.63381304 94.875 409.1953125 C96.80961757 407.37155102 98.8072822 405.69894805 100.86328125 404.015625 C111.75328026 394.46222547 120.19829585 382.31015149 127.98828125 370.203125 C128.68566406 369.13191406 129.38304687 368.06070313 130.1015625 366.95703125 C140.45429666 350.00676309 147.09367731 330.60821556 150.98828125 311.203125 C151.2203125 310.06230469 151.45234375 308.92148437 151.69140625 307.74609375 C153.36742803 298.22868437 153.47502043 288.95508066 153.98828125 279.203125 C130.22828125 279.203125 106.46828125 279.203125 81.98828125 279.203125 C81.32828125 285.143125 80.66828125 291.083125 79.98828125 297.203125 C74.51931541 324.98547146 59.46463234 348.94944506 35.79296875 364.84765625 C12.43922981 379.75416798 -15.91058558 384.78706937 -43.01171875 379.203125 C-59.98455304 375.33532094 -74.58099363 368.29379699 -88.01171875 357.203125 C-88.79933594 356.57921875 -89.58695312 355.9553125 -90.3984375 355.3125 C-113.77395813 335.89409194 -121.17101834 308.00837807 -125.01171875 279.203125 C-148.44171875 279.203125 -171.87171875 279.203125 -196.01171875 279.203125 Z " fill="#A16BAC" transform="translate(322.01171875,2.796875)"/>
</svg>
